<?xml version="1.0" encoding="utf-8"?>
<!-- Generator: Adobe Illustrator 16.0.0, SVG Export Plug-In . SVG Version: 6.00 Build 0)  -->
<!DOCTYPE svg PUBLIC "-//W3C//DTD SVG 1.1//EN" "http://www.w3.org/Graphics/SVG/1.1/DTD/svg11.dtd">
<svg version="1.1" id="Слой_1" xmlns="http://www.w3.org/2000/svg" xmlns:xlink="http://www.w3.org/1999/xlink" x="0px" y="0px"
	 width="575.367px" height="595.28px" viewBox="0 0 575.367 595.28" enable-background="new 0 0 575.367 595.28"
	 xml:space="preserve">
<path fill="#FFFFFF" d="M557.822,34.855h-114.98V17.548c0-9.69-7.859-17.548-17.548-17.548c-9.689,0-17.547,7.858-17.547,17.548
	v17.307H305.23V17.548C305.23,7.858,297.373,0,287.683,0c-9.689,0-17.547,7.858-17.547,17.548v17.307h-98.158V17.548
	C171.978,7.858,164.119,0,154.43,0c-9.689,0-17.547,7.858-17.547,17.548v17.307H17.548C7.859,34.855,0,42.714,0,52.403v396.493
	c0,9.688,7.859,17.547,17.548,17.547h107.701c17.258,73.741,83.511,128.837,162.434,128.837s145.177-55.099,162.436-128.837h107.7
	c9.689,0,17.549-7.858,17.549-17.547V52.403C575.37,42.714,567.514,34.855,557.822,34.855z M136.883,69.95v15.858
	c0,9.689,7.858,17.547,17.547,17.547c9.689,0,17.548-7.858,17.548-17.547V69.95h98.158v15.858c0,9.689,7.858,17.547,17.547,17.547
	c9.69,0,17.548-7.858,17.548-17.547V69.95h102.517v15.858c0,9.689,7.857,17.547,17.547,17.547c9.688,0,17.548-7.858,17.548-17.547
	V69.95h97.432v71.758H35.095V69.95H136.883z M287.683,560.186c-72.652,0-131.761-59.109-131.761-131.763
	c0-72.651,59.109-131.761,131.761-131.761c72.653,0,131.763,59.106,131.763,131.761
	C419.445,501.079,360.339,560.186,287.683,560.186 M454.467,431.349c0.018-0.978,0.073-1.945,0.073-2.926
	c0-92.004-74.853-166.855-166.857-166.855c-92.004,0-166.856,74.852-166.856,166.855c0,0.98,0.058,1.948,0.073,2.926H35.092V176.806
	h505.18v254.542H454.467z"/>
<path fill="#FFFFFF" d="M305.23,432.852v-84.89c0-9.688-7.857-17.548-17.548-17.548c-9.689,0-17.547,7.859-17.547,17.548v92.16
	c0,4.653,1.848,9.115,5.138,12.409l40.331,40.333c3.428,3.424,7.916,5.138,12.409,5.138c4.489,0,8.981-1.714,12.409-5.138
	c6.852-6.853,6.852-17.963,0-24.815L305.23,432.852z"/>
</svg>
