<?xml version="1.0" encoding="utf-8"?>
<!-- Generator: Adobe Illustrator 16.0.0, SVG Export Plug-In . SVG Version: 6.00 Build 0)  -->
<!DOCTYPE svg PUBLIC "-//W3C//DTD SVG 1.1//EN" "http://www.w3.org/Graphics/SVG/1.1/DTD/svg11.dtd">
<svg version="1.1" id="Слой_1" xmlns="http://www.w3.org/2000/svg" xmlns:xlink="http://www.w3.org/1999/xlink" x="0px" y="0px"
	 width="595.285px" height="540.979px" viewBox="0 0 595.285 540.979" enable-background="new 0 0 595.285 540.979"
	 xml:space="preserve">
<path fill="#FFFFFF" d="M588.09,149.215c-7.627-14.245-20.343-24.664-35.808-29.343c-15.465-4.681-31.827-3.055-46.069,4.571
	c-14.243,7.629-24.665,20.346-29.343,35.81c-3.118,10.302-3.373,20.991-0.986,31.195l-65.313,34.974
	c-19.865-27.891-50.831-47.321-86.411-51.797v-55.736c25.748-6.945,44.753-30.489,44.753-58.401
	c0-33.352-27.135-60.487-60.488-60.487c-33.353,0-60.49,27.135-60.49,60.49c0,27.911,19.008,51.456,44.753,58.4v55.731
	c-45.443,5.72-83.383,35.834-100.24,76.797l-71.481-19.259c0.015-10.483-2.654-20.836-8.025-30.164
	c-8.059-14.005-21.09-24.033-36.689-28.237c-32.215-8.68-65.465,10.467-74.143,42.671c-4.204,15.601-2.08,31.905,5.979,45.907
	c8.059,14,21.09,24.032,36.689,28.236c5.237,1.411,10.55,2.108,15.835,2.108c10.45,0,20.77-2.735,30.074-8.087
	c9.329-5.369,16.839-12.977,22.092-22.048l71.484,19.263c-0.771,5.613-1.204,11.334-1.204,17.159c0,28.901,9.858,55.53,26.354,76.76
	l-52.411,52.411c-23.114-13.281-53.168-10.121-72.9,9.605c-23.584,23.584-23.584,61.959,0,85.545
	c11.794,11.794,27.282,17.689,42.773,17.689c15.489,0,30.98-5.896,42.773-17.689c19.729-19.73,22.889-49.785,9.606-72.896
	l52.411-52.411c21.229,16.496,47.855,26.354,76.76,26.354c28.905,0,55.532-9.857,76.762-26.354l52.409,52.411
	c-13.279,23.114-10.122,53.168,9.606,72.896c11.794,11.794,27.282,17.689,42.773,17.689c15.49,0,30.979-5.898,42.772-17.689
	c23.584-23.584,23.584-61.959,0-85.545c-19.729-19.729-49.785-22.887-72.896-9.605l-52.411-52.411
	c16.496-21.229,26.354-47.855,26.354-76.76c0-15.79-2.964-30.896-8.315-44.828l65.266-34.947
	c7.169,7.644,16.207,13.356,26.51,16.474c5.791,1.752,11.71,2.62,17.595,2.62c9.829,0,19.566-2.423,28.476-7.193
	c14.245-7.626,24.664-20.343,29.343-35.808C597.344,179.822,595.716,163.458,588.09,149.215z M548.461,203.349
	c-6.832,3.661-14.681,4.44-22.1,2.192c-7.419-2.242-13.52-7.243-17.177-14.077c-3.661-6.832-4.438-14.684-2.192-22.103
	c2.242-7.419,7.243-13.519,14.077-17.177c4.274-2.29,8.944-3.451,13.661-3.451c2.82,0,5.662,0.417,8.438,1.256
	c7.419,2.242,13.52,7.243,17.177,14.077c3.661,6.832,4.438,14.681,2.193,22.1C560.296,193.59,555.295,199.69,548.461,203.349
	 M402.317,298.964c0,51.773-42.122,93.896-93.896,93.896s-93.896-42.123-93.896-93.896c0-51.772,42.122-93.896,93.896-93.896
	S402.317,247.192,402.317,298.964z M279.404,60.491c0-16.002,13.018-29.018,29.018-29.018c15.999,0,29.018,13.018,29.018,29.018
	s-13.019,29.018-29.018,29.018C292.422,89.509,279.404,76.491,279.404,60.491 M52.964,260.186
	c-7.484-2.017-13.734-6.829-17.599-13.545c-3.868-6.719-4.886-14.539-2.869-22.024c4.162-15.451,20.12-24.633,35.569-20.471
	c7.484,2.017,13.734,6.826,17.602,13.545c3.865,6.719,4.883,14.539,2.866,22.024C84.371,255.167,68.419,264.348,52.964,260.186
	 M147.393,501.033c-11.311,11.314-29.724,11.314-41.04,0c-11.313-11.313-11.313-29.723,0-41.039
	c5.657-5.657,13.089-8.483,20.521-8.483c7.43,0,14.862,2.829,20.519,8.483C158.706,471.31,158.706,489.72,147.393,501.033
	 M510.49,459.994c11.313,11.313,11.313,29.724,0,41.039c-11.311,11.314-29.723,11.314-41.039,0
	c-11.314-11.313-11.314-29.723,0-41.039c5.656-5.657,13.088-8.483,20.521-8.483C497.401,451.51,504.833,454.336,510.49,459.994"/>
</svg>
