<?xml version="1.0" encoding="utf-8"?>
<!-- Generator: Adobe Illustrator 16.0.0, SVG Export Plug-In . SVG Version: 6.00 Build 0)  -->
<!DOCTYPE svg PUBLIC "-//W3C//DTD SVG 1.1//EN" "http://www.w3.org/Graphics/SVG/1.1/DTD/svg11.dtd">
<svg version="1.1" id="Слой_1" xmlns="http://www.w3.org/2000/svg" xmlns:xlink="http://www.w3.org/1999/xlink" x="0px" y="0px"
	 width="587.928px" height="595.279px" viewBox="0 0 587.928 595.279" enable-background="new 0 0 587.928 595.279"
	 xml:space="preserve">
<path fill="#FFFFFF" d="M43.642,246.038h13.393c-0.091,0.7-0.152,1.408-0.152,2.133v260.796h-9.103
	c-9.164,0-16.597,7.433-16.597,16.597s7.433,16.597,16.597,16.597h25.7h62.993h62.996h62.996h62.993h62.996h62.996h62.993h25.7
	c9.164,0,16.597-7.433,16.597-16.597s-7.433-16.597-16.597-16.597h-9.104V248.171c0-0.725-0.061-1.433-0.151-2.133h13.393
	c12.506,0,23.543-7.98,27.46-19.858s-0.208-24.857-10.263-32.297L303.834,3.255c-5.86-4.341-13.879-4.341-19.742,0L26.441,193.883
	c-10.052,7.438-14.176,20.419-10.26,32.297C20.099,238.058,31.132,246.038,43.642,246.038 M308.863,508.967h-29.799V248.171
	c0-0.725-0.061-1.433-0.153-2.133h30.107c-0.091,0.7-0.152,1.408-0.152,2.133v260.796H308.863z M182.872,508.967h-29.805V248.171
	c0-0.725-0.061-1.433-0.152-2.133h30.109c-0.091,0.7-0.152,1.408-0.152,2.133V508.967z M90.073,264.767h29.8v244.2h-29.8V264.767z
	 M216.065,264.767h29.802v244.2h-29.802V264.767z M342.055,264.767h29.802v244.2h-29.802V264.767z M468.05,264.767h29.8v244.2h-29.8
	V264.767z M434.855,248.171v260.796h-29.802V248.171c0-0.725-0.062-1.433-0.152-2.133h30.109
	C434.92,246.738,434.855,247.446,434.855,248.171 M293.962,37.242l237.34,175.6H56.623L293.962,37.242z"/>
<path fill="#FFFFFF" d="M571.331,562.085H16.597C7.433,562.085,0,569.518,0,578.682s7.433,16.597,16.597,16.597h554.734
	c9.164,0,16.597-7.433,16.597-16.597S580.498,562.085,571.331,562.085"/>
</svg>
