<?xml version="1.0" encoding="utf-8"?>
<!-- Generator: Adobe Illustrator 17.0.0, SVG Export Plug-In . SVG Version: 6.00 Build 0)  -->
<!DOCTYPE svg PUBLIC "-//W3C//DTD SVG 1.1//EN" "http://www.w3.org/Graphics/SVG/1.1/DTD/svg11.dtd">
<svg version="1.1" id="Capa_1" xmlns="http://www.w3.org/2000/svg" xmlns:xlink="http://www.w3.org/1999/xlink" x="0px" y="0px"
	 width="622.15px" height="841.89px" viewBox="284.202 0 622.15 841.89" enable-background="new 284.202 0 622.15 841.89"
	 xml:space="preserve">
<path fill="#FFFFFF" d="M663.7,0H330.254c-25.394,0-46.052,20.658-46.052,46.052v749.786c0,25.394,20.658,46.052,46.052,46.052
	H860.3c25.394,0,46.052-20.658,46.052-46.052V227.293c0-12.296-4.789-23.859-13.486-32.559L695.749,12.983
	C687.114,4.605,675.762,0,663.7,0z M848.787,784.325h-507.02V57.565h275.421v154.412c0,34.098,27.727,61.84,61.805,61.84h169.793
	V784.325z M678.994,216.252c-2.337,0-4.241-1.919-4.241-4.275V90.784l134.195,125.465H678.994V216.252z M425.693,375.342
	c-19.726,0-35.771,16.049-35.771,35.771c0,19.726,16.049,35.771,35.771,35.771c19.726,0,35.771-16.049,35.771-35.771
	S445.414,375.342,425.693,375.342z M490.933,382.334h305.094v57.565H490.933L490.933,382.334L490.933,382.334z M425.693,490.472
	c-19.726,0-35.771,16.049-35.771,35.771s16.049,35.771,35.771,35.771c19.726,0,35.771-16.049,35.771-35.771
	S445.414,490.472,425.693,490.472z M490.933,497.46h305.094v57.565H490.933L490.933,497.46L490.933,497.46z M425.693,605.602
	c-19.726,0-35.771,16.049-35.771,35.771c0,19.722,16.049,35.771,35.771,35.771c19.726,0,35.771-16.049,35.771-35.771
	C461.464,621.651,445.414,605.602,425.693,605.602z M490.933,612.59h305.094v57.565H490.933L490.933,612.59L490.933,612.59z"/>
</svg>
