<?xml version="1.0" encoding="utf-8"?>
<!-- Generator: Adobe Illustrator 16.0.0, SVG Export Plug-In . SVG Version: 6.00 Build 0)  -->
<!DOCTYPE svg PUBLIC "-//W3C//DTD SVG 1.1//EN" "http://www.w3.org/Graphics/SVG/1.1/DTD/svg11.dtd">
<svg version="1.1" id="Слой_1" xmlns="http://www.w3.org/2000/svg" xmlns:xlink="http://www.w3.org/1999/xlink" x="0px" y="0px"
	 width="599.283px" height="493.337px" viewBox="0 0 599.283 493.337" enable-background="new 0 0 599.283 493.337"
	 xml:space="preserve">
<path fill="#FFFFFF" d="M381.476,409.907c-0.904-0.209-1.83-0.315-2.751-0.315c-5.722,0-10.617,3.899-11.903,9.482l-11.474,49.816
	H27.583l30.368-131.852h251.238c6.74,0,12.222-5.482,12.222-12.222c0-6.74-5.481-12.224-12.222-12.224H57.952L27.583,180.743H355.35
	l14.711,63.873c1.286,5.583,6.179,9.482,11.899,9.482c0.923,0,1.85-0.106,2.755-0.315c3.181-0.732,5.887-2.661,7.619-5.428
	c1.73-2.768,2.28-6.044,1.548-9.226l-16.264-70.61l35.367-153.553c0.84-3.647-0.015-7.421-2.346-10.354
	c-2.331-2.931-5.816-4.613-9.564-4.613H48.224c-5.726,0-10.624,3.898-11.911,9.48L0.315,165.778c-0.413,1.794-0.413,3.691,0,5.486
	l35.366,153.553L0.315,478.37c-0.84,3.647,0.015,7.421,2.346,10.354c2.33,2.931,5.816,4.612,9.564,4.612h352.85
	c5.727,0,10.624-3.897,11.911-9.479l13.658-59.295C392.155,417.994,388.043,411.42,381.476,409.907 M27.583,156.298L57.952,24.447
	h327.766L355.35,156.298H27.583z"/>
<path fill="#FFFFFF" d="M263.688,53.617H87.868c-6.739,0-12.222,5.483-12.222,12.223c0,6.739,5.483,12.222,12.222,12.222h175.82
	c6.74,0,12.223-5.483,12.223-12.222C275.911,59.101,270.428,53.617,263.688,53.617"/>
<path fill="#FFFFFF" d="M245.289,102.683H69.469c-6.739,0-12.222,5.483-12.222,12.223c0,6.739,5.483,12.222,12.222,12.222h175.82
	c6.74,0,12.223-5.483,12.223-12.222C257.512,108.166,252.029,102.683,245.289,102.683"/>
<path fill="#FFFFFF" d="M275.911,378.433c0-6.74-5.483-12.224-12.223-12.224H87.869c-6.74,0-12.223,5.483-12.223,12.224
	c0,6.739,5.483,12.223,12.223,12.223h175.819C270.428,390.655,275.911,385.172,275.911,378.433"/>
<path fill="#FFFFFF" d="M69.469,415.275c-6.74,0-12.223,5.482-12.223,12.223c0,6.739,5.483,12.222,12.223,12.222h175.82
	c6.739,0,12.222-5.482,12.222-12.222c0-6.74-5.483-12.223-12.222-12.223H69.469z"/>
<path fill="#FFFFFF" d="M257.51,222.136c0-6.74-5.483-12.223-12.223-12.223H69.469c-6.74,0-12.223,5.483-12.223,12.223
	c0,6.74,5.483,12.223,12.223,12.223h175.82C252.028,234.359,257.51,228.876,257.51,222.136"/>
<path fill="#FFFFFF" d="M87.868,283.424h175.82c6.739,0,12.222-5.482,12.222-12.223c0-6.739-5.483-12.222-12.222-12.222H87.868
	c-6.74,0-12.223,5.482-12.223,12.222C75.646,277.941,81.128,283.424,87.868,283.424"/>
<path fill="#FFFFFF" d="M341.371,40.891c-2.977,0-5.848,1.086-8.083,3.058L314.44,60.58c-1.276-5.509-6.221-9.469-11.896-9.469
	c-0.805,0-1.615,0.081-2.41,0.24c-6.608,1.322-10.91,7.774-9.588,14.383l4.089,20.442c0.855,4.273,3.951,7.792,8.08,9.185
	c1.264,0.425,2.576,0.641,3.904,0.641c2.98,0,5.853-1.086,8.087-3.057l34.756-30.667c2.448-2.16,3.908-5.144,4.112-8.402
	c0.203-3.259-0.875-6.402-3.035-8.85C348.221,42.397,344.878,40.891,341.371,40.891"/>
<path fill="#FFFFFF" d="M312.67,267.178c0.604,0.059,1.218,0.072,1.82,0.042c4.353-0.226,8.284-2.777,10.261-6.661l21.033-41.302
	c3.059-6.005,0.661-13.379-5.345-16.438c-1.37-0.699-2.836-1.128-4.355-1.277c-5.04-0.493-9.782,2.106-12.082,6.621l-11.408,22.401
	c-2.048-2.973-5.265-4.87-8.877-5.223c-2.733-0.267-5.511,0.409-7.821,1.904c-2.741,1.773-4.627,4.507-5.312,7.699
	c-0.684,3.193-0.085,6.46,1.689,9.202l11.324,17.506C305.633,264.799,308.939,266.813,312.67,267.178"/>
<path fill="#FFFFFF" d="M595.975,191.229l-52.123-55.563c-2.232-2.38-5.259-3.749-8.522-3.854c-0.126-0.003-0.242-0.005-0.358-0.005
	c-3.138,0-6.119,1.174-8.395,3.307L331.25,318.348c-1.494,1.402-2.62,3.171-3.256,5.117L303.363,398.8
	c-1.389,4.244-0.353,8.903,2.703,12.161c2.303,2.452,5.552,3.859,8.914,3.859c1.024,0,2.049-0.129,3.047-0.385l76.758-19.776
	c1.981-0.509,3.818-1.52,5.313-2.921l195.326-183.234c2.381-2.233,3.749-5.26,3.853-8.522
	C599.381,196.72,598.209,193.61,595.975,191.229 M368.702,376.136l-35.174,9.063l11.288-34.523L368.702,376.136z M569.785,199.04
	L392.286,365.548l-35.396-37.734l177.497-166.508L569.785,199.04z"/>
</svg>
