<?xml version="1.0" encoding="utf-8"?>
<!-- Generator: Adobe Illustrator 16.0.0, SVG Export Plug-In . SVG Version: 6.00 Build 0)  -->
<!DOCTYPE svg PUBLIC "-//W3C//DTD SVG 1.1//EN" "http://www.w3.org/Graphics/SVG/1.1/DTD/svg11.dtd">
<svg version="1.1" id="Слой_1" xmlns="http://www.w3.org/2000/svg" xmlns:xlink="http://www.w3.org/1999/xlink" x="0px" y="0px"
	 width="595.279px" height="516.21px" viewBox="0 0 595.279 516.21" enable-background="new 0 0 595.279 516.21"
	 xml:space="preserve">
<path fill="#FFFFFF" d="M583.402,133.072L462.228,11.897C454.556,4.225,444.357,0,433.507,0c-10.849,0-21.047,4.225-28.717,11.897
	l-28.477,28.474c-4.382,4.382-7.505,9.536-9.464,15.019L233.613,31.537c-0.009-0.002-0.02-0.002-0.029-0.005
	c-59.908-11.891-118.399,27.056-130.48,86.97l-6.145,30.483c-6.787,33.663,15.081,66.568,48.743,73.355
	c33.665,6.783,66.571-15.08,73.358-48.742l3.756-18.641l59.747,5.224L438.592,316.21l28.278,28.278
	c5.728,5.727,5.725,15.045,0,20.771c-5.724,5.725-15.042,5.727-20.768,0l-75.749-75.748c-5.276-5.276-13.833-5.276-19.107,0
	c-5.275,5.275-5.275,13.83,0,19.106l75.749,75.749c2.774,2.774,4.301,6.462,4.301,10.385s-1.526,7.609-4.301,10.383
	c-5.729,5.728-15.044,5.725-20.769,0l-75.749-75.748c-5.276-5.276-13.832-5.276-19.106,0c-5.275,5.275-5.275,13.83,0,19.106
	l75.749,75.749c5.727,5.724,5.727,15.042,0,20.768c-2.774,2.775-6.463,4.302-10.383,4.302c-3.923,0-7.612-1.526-10.386-4.302
	l-75.75-75.748c-5.276-5.276-13.833-5.276-19.107,0c-5.276,5.275-5.276,13.83,0,19.106l75.749,75.749
	c5.728,5.726,5.726,15.044,0,20.771c-5.724,5.724-15.042,5.726-20.768,0L58.457,216.873l-35.394-35.394
	c-5.276-5.276-13.833-5.276-19.106,0c-5.276,5.276-5.276,13.83,0,19.106l35.394,35.395l38.517,38.517l-21.232,21.232
	c-6.952,6.952-10.782,16.194-10.782,26.028s3.828,19.078,10.782,26.029l6.929,6.929c6.077,6.078,13.907,9.767,22.349,10.6
	c0.833,8.441,4.522,16.271,10.599,22.347l6.929,6.931c6.24,6.24,14.182,9.761,22.345,10.573c0.826,8.451,4.519,16.292,10.604,22.374
	l6.929,6.93c6.077,6.076,13.907,9.766,22.349,10.599c0.833,8.442,4.522,16.271,10.599,22.349l6.929,6.93
	c7.177,7.177,16.603,10.764,26.029,10.764c9.426,0,18.852-3.587,26.029-10.764l21.232-21.232l50.88,50.88
	c7.879,7.879,18.353,12.216,29.492,12.216s21.615-4.34,29.492-12.216c7.463-7.463,11.701-17.265,12.131-27.745
	c10.481-0.43,20.282-4.668,27.747-12.131c7.691-7.692,11.698-17.665,12.114-27.762c10.095-0.417,20.07-4.423,27.761-12.113
	c7.691-7.692,11.698-17.665,12.115-27.763c10.097-0.416,20.071-4.422,27.762-12.114c16.263-16.263,16.263-42.722,0-58.985
	l-18.724-18.723l68.508-68.508l47.639-47.639C599.237,174.674,599.237,148.906,583.402,133.072L583.402,133.072z M75.743,328.679
	c-3.817-3.817-3.817-10.025,0-13.843l19.91-19.91l20.771,20.771l-19.911,19.911c-3.814,3.816-10.027,3.814-13.842,0L75.743,328.679z
	 M115.62,368.557c-3.817-3.817-3.817-10.025,0-13.841l19.911-19.91l20.77,20.771l-19.908,19.911c-3.817,3.813-10.03,3.817-13.842,0
	L115.62,368.557 M155.495,408.434c-1.849-1.85-2.866-4.309-2.866-6.92c0-2.612,1.017-5.071,2.866-6.921l19.911-19.909l20.768,20.768
	l-19.91,19.911c-3.815,3.814-10.025,3.814-13.84,0L155.495,408.434z M216.145,455.239c-3.815,3.817-10.028,3.815-13.842,0
	l-6.929-6.928c-3.817-3.817-3.817-10.025,0-13.842l19.91-19.911l20.771,20.771l-19.911,19.91H216.145z M448.146,287.549
	L298.193,137.595c-2.247-2.247-5.211-3.63-8.377-3.904l-76.681-6.704c-0.399-0.036-0.795-0.052-1.187-0.052
	c-6.37,0-11.952,4.493-13.234,10.843l-6.145,30.483c-3.841,19.055-22.459,31.431-41.528,27.591
	c-9.229-1.86-17.186-7.206-22.396-15.049c-5.211-7.843-7.058-17.246-5.195-26.479l6.145-30.48
	c9.156-45.417,53.535-74.93,98.97-65.763c0.094,0.018,0.191,0.039,0.288,0.054l131.294,23.507l16.166,16.166l130.788,130.788
	L448.146,287.549z M564.293,171.402l-38.087,38.087L395.418,78.701c-2.566-2.567-3.981-5.981-3.981-9.613
	c0-3.632,1.415-7.043,3.981-9.613l28.477-28.476c2.566-2.567,5.98-3.981,9.61-3.981s7.044,1.414,9.613,3.981l121.175,121.175
	c2.567,2.567,3.981,5.981,3.981,9.613C568.274,165.419,566.86,168.835,564.293,171.402z"/>
<path fill="#FFFFFF" d="M531.588,153.642c7.462,0,13.511,6.049,13.511,13.511s-6.049,13.511-13.511,13.511
	s-13.511-6.049-13.511-13.511S524.126,153.642,531.588,153.642"/>
</svg>
